<svg width="120" height="121" viewBox="0 0 120 121" fill="none" xmlns="http://www.w3.org/2000/svg">
<g filter="url(#filter0_d_2614_645)">
<g clip-path="url(#clip0_2614_645)">
<rect y="0.789062" width="120" height="120" rx="60" fill="#F7F7F7"/>
<g clip-path="url(#clip1_2614_645)">
<g clip-path="url(#clip2_2614_645)">
<path d="M94.919 67.4091H74.149L88.985 82.3701L80.366 90.7761L65.671 75.9581V97.0451L53.661 96.9031V75.9581L38.826 90.9191L30.489 82.2271L45.184 67.4091H24.272V55.2981H45.184L30.348 40.3381L38.826 31.7891L53.661 46.7491V25.6621H65.671V46.7491L80.507 31.7891L88.985 40.3381L74.149 55.2981H94.919V67.4091Z" fill="black"/>
</g>
</g>
</g>
</g>
<defs>
<filter id="filter0_d_2614_645" x="-30" y="-29.2109" width="180" height="180" filterUnits="userSpaceOnUse" color-interpolation-filters="sRGB">
<feFlood flood-opacity="0" result="BackgroundImageFix"/>
<feColorMatrix in="SourceAlpha" type="matrix" values="0 0 0 0 0 0 0 0 0 0 0 0 0 0 0 0 0 0 127 0" result="hardAlpha"/>
<feOffset/>
<feGaussianBlur stdDeviation="15"/>
<feComposite in2="hardAlpha" operator="out"/>
<feColorMatrix type="matrix" values="0 0 0 0 0 0 0 0 0 0 0 0 0 0 0 0 0 0 0.45 0"/>
<feBlend mode="normal" in2="BackgroundImageFix" result="effect1_dropShadow_2614_645"/>
<feBlend mode="normal" in="SourceGraphic" in2="effect1_dropShadow_2614_645" result="shape"/>
</filter>
<clipPath id="clip0_2614_645">
<rect y="0.789062" width="120" height="120" rx="60" fill="white"/>
</clipPath>
<clipPath id="clip1_2614_645">
<rect width="73" height="73" fill="white" transform="translate(23.5 24.2891)"/>
</clipPath>
<clipPath id="clip2_2614_645">
<rect width="73" height="73" fill="white" transform="translate(23.5 24.2891)"/>
</clipPath>
</defs>
</svg>
