<svg width="545" height="634" viewBox="0 0 545 634" fill="none" xmlns="http://www.w3.org/2000/svg">
<path d="M0.445312 22.201C0.445312 10.3701 10.0361 0.779297 21.867 0.779297H523.135C534.966 0.779297 544.557 10.3701 544.557 22.201V317.106V396.188V435.729V445.929C544.557 451.903 541.552 457.477 536.562 460.761L535.229 461.638C524.78 468.514 525.261 483.994 536.116 490.208C541.336 493.197 544.557 498.751 544.557 504.766V514.811V554.352V612.012C544.557 623.843 534.966 633.434 523.135 633.434H21.867C10.0361 633.434 0.445312 623.843 0.445312 612.012V554.352V514.811V504.683C0.445312 498.711 3.61248 493.186 8.76644 490.169C19.4617 483.907 19.9412 468.621 9.65947 461.701L8.32113 460.8C3.39769 457.487 0.445312 451.941 0.445312 446.006V435.729V396.188V317.106V22.201Z" fill="url(#paint0_linear_2366_199)"/>
<defs>
<linearGradient id="paint0_linear_2366_199" x1="273.215" y1="27.1994" x2="273.215" y2="657.712" gradientUnits="userSpaceOnUse">
<stop offset="0.366138" stop-color="#F1EFEF"/>
<stop offset="0.538979" stop-color="#EED6D6"/>
<stop offset="0.701972" stop-color="#EBDDDD"/>
<stop offset="0.724915" stop-color="#FBF2F2"/>
<stop offset="0.981558" stop-color="white"/>
</linearGradient>
</defs>
</svg>
