<?xml version="1.0" encoding="UTF-8" standalone="no"?>
<!DOCTYPE svg PUBLIC "-//W3C//DTD SVG 1.1//EN" "http://www.w3.org/Graphics/SVG/1.1/DTD/svg11.dtd">
<svg xmlns="http://www.w3.org/2000/svg" version="1.1" viewBox="0.00 0.00 600.00 600.00" width="600.00" height="600.00">
<g stroke-width="2.00" fill="none" stroke-linecap="butt">
<path stroke="#b2b8bf" vector-effect="non-scaling-stroke" d="
  M 319.52 95.76
  Q 308.80 92.97 297.90 97.92
  Q 284.53 104.00 274.56 115.57
  Q 268.60 122.49 263.99 128.76"
/>
<path stroke="#ecefff" vector-effect="non-scaling-stroke" d="
  M 263.99 128.76
  Q 256.42 132.13 244.02 139.28
  Q 174.11 179.62 104.21 219.97
  Q 89.73 228.32 80.40 234.18"
/>
<path stroke="#d9daf8" vector-effect="non-scaling-stroke" d="
  M 80.40 234.18
  L 79.91 234.47
  Q 79.50 234.72 79.50 235.20
  L 79.50 519.25
  Q 79.50 519.72 79.91 519.95
  L 113.31 539.11"
/>
<path stroke="#c5c7e0" vector-effect="non-scaling-stroke" d="
  M 113.31 539.11
  L 119.75 542.79"
/>
<path stroke="#9fa5a9" vector-effect="non-scaling-stroke" d="
  M 119.75 542.79
  L 126.48 546.66"
/>
<path stroke="#c5c7e0" vector-effect="non-scaling-stroke" d="
  M 126.48 546.66
  L 132.24 550.20"
/>
<path stroke="#d9daf8" vector-effect="non-scaling-stroke" d="
  M 132.24 550.20
  Q 148.17 559.30 164.69 568.81
  Q 165.05 569.02 166.63 569.50"
/>
<path stroke="#969b9d" vector-effect="non-scaling-stroke" d="
  M 166.63 569.50
  Q 166.29 569.42 166.66 569.79
  Q 166.82 569.95 167.01 569.84
  L 193.65 554.47"
/>
<path stroke="#c5c7e0" vector-effect="non-scaling-stroke" d="
  M 193.65 554.47
  L 494.35 380.85"
/>
<path stroke="#969b9d" vector-effect="non-scaling-stroke" d="
  M 494.35 380.85
  L 520.03 365.99
  Q 520.49 365.73 520.49 365.20
  L 520.47 335.26"
/>
<path stroke="#c5c7e0" vector-effect="non-scaling-stroke" d="
  M 520.47 335.26
  L 520.50 111.23"
/>
<path stroke="#969b9d" vector-effect="non-scaling-stroke" d="
  M 520.50 111.23
  L 520.41 80.51"
/>
<path stroke="#ecefff" vector-effect="non-scaling-stroke" d="
  M 520.41 80.51
  L 486.26 60.53"
/>
<path stroke="#d9daf8" vector-effect="non-scaling-stroke" d="
  M 486.26 60.53
  L 480.26 57.17"
/>
<path stroke="#b2b8bf" vector-effect="non-scaling-stroke" d="
  M 480.26 57.17
  L 473.41 53.26"
/>
<path stroke="#d9daf8" vector-effect="non-scaling-stroke" d="
  M 473.41 53.26
  L 467.83 49.98"
/>
<path stroke="#ecefff" vector-effect="non-scaling-stroke" d="
  M 467.83 49.98
  L 434.54 30.81
  Q 433.31 30.10 432.07 30.81
  L 319.52 95.76"
/>
<path stroke="#c6caf8" vector-effect="non-scaling-stroke" d="
  M 467.83 49.98
  Q 436.66 67.76 406.08 85.60
  Q 404.21 86.70 402.56 88.10"
/>
<path stroke="#9fa8bf" vector-effect="non-scaling-stroke" d="
  M 402.56 88.10
  L 387.23 79.37
  A 1.36 1.34 44.6 0 0 385.88 79.37
  L 357.95 95.52
  Q 357.40 95.84 357.95 96.16
  L 372.84 104.86"
/>
<path stroke="#c6caf8" vector-effect="non-scaling-stroke" d="
  M 372.84 104.86
  Q 361.41 110.72 350.85 117.75"
/>
<path stroke="#8c95a8" vector-effect="non-scaling-stroke" d="
  M 350.85 117.75
  Q 347.93 112.56 343.69 109.56
  Q 340.96 107.64 335.99 105.37"
/>
<path stroke="#9fa8bf" vector-effect="non-scaling-stroke" d="
  M 335.99 105.37
  L 319.52 95.76"
/>
<path stroke="#8c93b8" vector-effect="non-scaling-stroke" d="
  M 473.41 53.26
  L 408.29 90.86
  Q 407.81 91.13 407.34 90.86
  L 402.56 88.10"
/>
<path stroke="#525e69" vector-effect="non-scaling-stroke" d="
  M 335.99 105.37
  Q 323.21 105.43 314.32 110.09
  C 290.70 122.47 274.37 149.15 269.24 174.73
  C 268.60 177.91 268.46 182.14 267.73 185.83"
/>
<path stroke="#8c93b8" vector-effect="non-scaling-stroke" d="
  M 267.73 185.83
  Q 265.22 185.02 263.56 183.58
  A 1.59 1.58 -39.2 0 0 261.72 183.40
  L 222.01 206.24
  Q 221.49 206.54 222.01 206.84
  L 227.48 210.02"
/>
<path stroke="#8c93b8" vector-effect="non-scaling-stroke" d="
  M 197.96 226.90
  L 192.74 223.66
  Q 192.29 223.38 191.84 223.65
  Q 154.12 245.66 128.17 260.40
  Q 127.45 260.80 126.76 261.71"
/>
<path stroke="#7880a0" vector-effect="non-scaling-stroke" d="
  M 126.76 261.71
  Q 126.72 262.51 126.50 262.12"
/>
<path stroke="#525e69" vector-effect="non-scaling-stroke" d="
  M 126.50 262.12
  L 119.96 257.87"
/>
<path stroke="#7880a0" vector-effect="non-scaling-stroke" d="
  M 119.96 257.87
  L 120.07 257.37"
/>
<path stroke="#8c93b8" vector-effect="non-scaling-stroke" d="
  M 120.07 257.37
  L 184.86 219.94
  Q 185.39 219.64 184.86 219.33
  L 179.60 216.27"
/>
<path stroke="#9fa8bf" vector-effect="non-scaling-stroke" d="
  M 179.60 216.27
  L 164.96 207.73
  A 0.45 0.44 45.2 0 1 164.96 206.96
  L 193.03 190.75
  Q 193.53 190.46 194.03 190.75
  L 209.05 199.29"
/>
<path stroke="#8c93b8" vector-effect="non-scaling-stroke" d="
  M 209.05 199.29
  L 214.16 202.39
  Q 214.64 202.68 215.12 202.40
  L 255.00 179.48
  A 0.44 0.43 -47.5 0 0 254.97 178.71
  L 249.28 176.05"
/>
<path stroke="#9fa8bf" vector-effect="non-scaling-stroke" d="
  M 249.28 176.05
  Q 249.88 153.65 261.01 134.73
  Q 261.80 133.39 263.99 128.76"
/>
<path stroke="#797fa2" vector-effect="non-scaling-stroke" d="
  M 354.54 129.70
  L 355.03 136.18"
/>
<path stroke="#797fa2" vector-effect="non-scaling-stroke" d="
  M 342.22 143.79
  L 341.15 143.58"
/>
<path stroke="#525e69" vector-effect="non-scaling-stroke" d="
  M 341.15 143.58
  Q 341.81 142.68 341.79 142.01
  C 341.44 130.73 334.03 120.38 321.46 122.97"
/>
<path stroke="#8c95a8" vector-effect="non-scaling-stroke" d="
  M 321.46 122.97
  C 306.43 126.11 294.31 140.22 287.91 153.64"
/>
<path stroke="#797fa2" vector-effect="non-scaling-stroke" d="
  M 287.91 153.64
  L 284.23 162.52"
/>
<path stroke="#525e69" vector-effect="non-scaling-stroke" d="
  M 284.23 162.52
  Q 282.42 166.35 282.39 171.34"
/>
<path stroke="#797fa2" vector-effect="non-scaling-stroke" d="
  M 282.39 171.34
  Q 280.84 173.68 281.53 178.51"
/>
<path stroke="#797fa2" vector-effect="non-scaling-stroke" d="
  M 268.22 186.27
  Q 267.91 186.10 267.73 185.83"
/>
<path stroke="#797fa2" vector-effect="non-scaling-stroke" d="
  M 353.10 122.93
  L 350.85 117.75"
/>
<path stroke="#8c93b8" vector-effect="non-scaling-stroke" d="
  M 480.26 57.17
  L 415.37 94.73
  Q 414.78 95.07 415.36 95.41
  L 420.62 98.49"
/>
<path stroke="#9fa8bf" vector-effect="non-scaling-stroke" d="
  M 420.62 98.49
  L 435.03 106.95
  Q 435.73 107.36 435.02 107.77
  L 407.02 123.86
  Q 406.47 124.18 405.92 123.86
  L 390.93 115.27"
/>
<path stroke="#8c93b8" vector-effect="non-scaling-stroke" d="
  M 390.93 115.27
  L 385.74 112.32
  Q 385.25 112.04 384.76 112.32
  L 354.54 129.70"
/>
<path stroke="#525e69" vector-effect="non-scaling-stroke" d="
  M 354.54 129.70
  L 353.10 122.93"
/>
<path stroke="#8c93b8" vector-effect="non-scaling-stroke" d="
  M 353.10 122.93
  L 377.88 108.47
  Q 378.48 108.12 377.88 107.77
  L 372.84 104.86"
/>
<path stroke="#838b9c" vector-effect="non-scaling-stroke" d="
  M 520.41 80.51
  L 493.56 96.15"
/>
<path stroke="#b2b7e0" vector-effect="non-scaling-stroke" d="
  M 493.56 96.15
  L 192.93 269.56"
/>
<path stroke="#838b9c" vector-effect="non-scaling-stroke" d="
  M 192.93 269.56
  L 166.65 284.76"
/>
<path stroke="#c6caf8" vector-effect="non-scaling-stroke" d="
  M 166.65 284.76
  L 132.89 265.18
  A 0.44 0.43 45.2 0 1 132.89 264.43
  L 197.96 226.90"
/>
<path stroke="#9fa8bf" vector-effect="non-scaling-stroke" d="
  M 197.96 226.90
  L 213.04 235.41
  Q 213.47 235.66 213.90 235.40
  L 242.09 219.12
  A 0.40 0.39 44.6 0 0 242.08 218.44
  L 227.48 210.02"
/>
<path stroke="#c6caf8" vector-effect="non-scaling-stroke" d="
  M 227.48 210.02
  Q 227.48 209.84 227.49 209.70
  Q 227.53 209.27 227.96 209.25
  Q 228.12 209.25 228.27 209.26
  Q 228.44 209.27 228.58 209.19
  L 268.22 186.27"
/>
<path stroke="#8c95a8" vector-effect="non-scaling-stroke" d="
  M 268.22 186.27
  L 281.53 178.51"
/>
<path stroke="#c6caf8" vector-effect="non-scaling-stroke" d="
  M 281.53 178.51
  L 342.22 143.79"
/>
<path stroke="#8c95a8" vector-effect="non-scaling-stroke" d="
  M 342.22 143.79
  L 355.03 136.18"
/>
<path stroke="#c6caf8" vector-effect="non-scaling-stroke" d="
  M 355.03 136.18
  L 390.93 115.27"
/>
<path stroke="#707696" vector-effect="non-scaling-stroke" d="
  M 166.65 284.76
  L 166.77 315.29"
/>
<path stroke="#707696" vector-effect="non-scaling-stroke" d="
  M 167.04 539.12
  L 166.63 569.50"
/>
<path stroke="#9fa2d9" vector-effect="non-scaling-stroke" d="
  M 132.24 550.20
  L 132.25 265.49
  A 0.93 0.92 15.6 0 0 131.80 264.70
  L 126.76 261.71"
/>
<path stroke="#656d8a" vector-effect="non-scaling-stroke" d="
  M 126.50 262.12
  L 126.48 546.66"
/>
<path stroke="#9fa2d9" vector-effect="non-scaling-stroke" d="
  M 120.07 257.37
  Q 116.77 256.69 114.50 254.63
  Q 114.18 254.34 114.12 254.77
  C 113.48 259.42 113.99 265.01 113.99 268.41
  Q 114.01 401.55 113.99 534.69
  Q 113.99 536.47 113.31 539.11"
/>
<path stroke="#c6caf8" vector-effect="non-scaling-stroke" d="
  M 249.28 176.05
  L 209.05 199.29"
/>
<path stroke="#c6caf8" vector-effect="non-scaling-stroke" d="
  M 179.60 216.27
  L 114.32 253.97
  A 0.91 0.91 0.0 0 1 113.40 253.97
  Q 97.70 244.76 81.80 235.72
  Q 81.27 235.42 80.40 234.18"
/>
<path stroke="#656d8a" vector-effect="non-scaling-stroke" d="
  M 119.96 257.87
  L 119.75 542.79"
/>
<path stroke="#8c93b8" vector-effect="non-scaling-stroke" d="
  M 341.15 143.58
  L 336.38 140.78
  A 0.93 0.92 -44.5 0 0 335.45 140.78
  L 282.39 171.34"
/>
<path stroke="#8c93b8" vector-effect="non-scaling-stroke" d="
  M 284.23 162.52
  L 328.43 136.96
  A 0.49 0.49 0.0 0 0 328.43 136.10
  L 323.17 133.10"
/>
<path stroke="#9fa8bf" vector-effect="non-scaling-stroke" d="
  M 323.17 133.10
  L 321.46 122.97"
/>
<path stroke="#c6caf8" vector-effect="non-scaling-stroke" d="
  M 323.17 133.10
  L 287.91 153.64"
/>
<path stroke="#c6caf8" vector-effect="non-scaling-stroke" d="
  M 486.26 60.53
  L 420.62 98.49"
/>
<path stroke="#5c637e" vector-effect="non-scaling-stroke" d="
  M 520.50 111.23
  C 508.39 116.77 497.83 115.49 494.76 101.02
  Q 494.27 98.69 493.56 96.15"
/>
<path stroke="#5c637e" vector-effect="non-scaling-stroke" d="
  M 520.47 335.26
  Q 496.83 351.53 494.02 380.08
  A 0.66 0.64 -64.0 0 0 494.17 380.55
  Q 494.28 380.66 494.35 380.85"
/>
<path stroke="#5c637e" vector-effect="non-scaling-stroke" d="
  M 193.65 554.47
  Q 192.90 551.63 192.34 549.00
  C 189.29 534.83 178.81 533.84 167.04 539.12"
/>
<path stroke="#9fa2d9" vector-effect="non-scaling-stroke" d="
  M 167.04 539.12
  L 166.77 315.29"
/>
<path stroke="#5c637e" vector-effect="non-scaling-stroke" d="
  M 166.77 315.29
  C 181.98 305.20 192.26 287.96 192.93 269.56"
/>
<path stroke="#525e69" vector-effect="non-scaling-stroke" d="
  M 411.88 104.13
  A 0.30 0.30 0.0 0 0 411.88 103.61
  L 392.66 92.61
  A 0.30 0.30 0.0 0 0 392.36 92.61
  L 381.47 98.99
  A 0.30 0.30 0.0 0 0 381.48 99.51
  L 400.41 110.47
  A 0.30 0.30 0.0 0 0 400.71 110.48
  L 411.88 104.13"
/>
<path stroke="#525e69" vector-effect="non-scaling-stroke" d="
  M 218.58 215.71
  A 0.46 0.46 0.0 0 0 218.57 214.91
  L 199.73 204.13
  A 0.46 0.46 0.0 0 0 199.27 204.13
  L 188.48 210.33
  A 0.46 0.46 0.0 0 0 188.48 211.13
  L 207.32 221.93
  A 0.46 0.46 0.0 0 0 207.78 221.93
  L 218.58 215.71"
/>
<path stroke="#9fa2d9" vector-effect="non-scaling-stroke" d="
  M 501.24 352.20
  L 501.31 115.75
  A 0.33 0.33 0.0 0 0 500.82 115.46
  Q 344.76 205.53 188.75 295.59
  C 186.77 296.74 185.81 297.81 185.82 300.06
  Q 186.24 413.23 185.83 526.39
  C 185.83 528.69 186.15 531.85 185.95 534.59
  A 0.41 0.41 0.0 0 0 186.57 534.97
  Q 341.87 445.22 497.31 355.56
  Q 499.52 354.29 500.84 353.09
  Q 501.24 352.73 501.24 352.20"
/>
<path stroke="#9fa2d9" vector-effect="non-scaling-stroke" d="
  M 194.61 304.94
  A 0.73 0.73 0.0 0 0 194.24 305.57
  L 194.27 516.50
  A 0.73 0.73 0.0 0 0 195.36 517.13
  L 492.38 345.66
  A 0.73 0.73 0.0 0 0 492.75 345.03
  L 492.75 134.06
  A 0.73 0.73 0.0 0 0 491.65 133.43
  L 194.61 304.94"
/>
</g>
<path fill="#ffffff" d="
  M 0.00 0.00
  L 600.00 0.00
  L 600.00 600.00
  L 0.00 600.00
  L 0.00 0.00
  Z
  M 319.52 95.76
  Q 308.80 92.97 297.90 97.92
  Q 284.53 104.00 274.56 115.57
  Q 268.60 122.49 263.99 128.76
  Q 256.42 132.13 244.02 139.28
  Q 174.11 179.62 104.21 219.97
  Q 89.73 228.32 80.40 234.18
  L 79.91 234.47
  Q 79.50 234.72 79.50 235.20
  L 79.50 519.25
  Q 79.50 519.72 79.91 519.95
  L 113.31 539.11
  L 119.75 542.79
  L 126.48 546.66
  L 132.24 550.20
  Q 148.17 559.30 164.69 568.81
  Q 165.05 569.02 166.63 569.50
  Q 166.29 569.42 166.66 569.79
  Q 166.82 569.95 167.01 569.84
  L 193.65 554.47
  L 494.35 380.85
  L 520.03 365.99
  Q 520.49 365.73 520.49 365.20
  L 520.47 335.26
  L 520.50 111.23
  L 520.41 80.51
  L 486.26 60.53
  L 480.26 57.17
  L 473.41 53.26
  L 467.83 49.98
  L 434.54 30.81
  Q 433.31 30.10 432.07 30.81
  L 319.52 95.76
  Z"
/>
<path fill="#d9dffe" d="
  M 467.83 49.98
  Q 436.66 67.76 406.08 85.60
  Q 404.21 86.70 402.56 88.10
  L 387.23 79.37
  A 1.36 1.34 44.6 0 0 385.88 79.37
  L 357.95 95.52
  Q 357.40 95.84 357.95 96.16
  L 372.84 104.86
  Q 361.41 110.72 350.85 117.75
  Q 347.93 112.56 343.69 109.56
  Q 340.96 107.64 335.99 105.37
  L 319.52 95.76
  L 432.07 30.81
  Q 433.31 30.10 434.54 30.81
  L 467.83 49.98
  Z"
/>
<path fill="#b3b4f1" d="
  M 467.83 49.98
  L 473.41 53.26
  L 408.29 90.86
  Q 407.81 91.13 407.34 90.86
  L 402.56 88.10
  Q 404.21 86.70 406.08 85.60
  Q 436.66 67.76 467.83 49.98
  Z"
/>
<path fill="#65717f" d="
  M 473.41 53.26
  L 480.26 57.17
  L 415.37 94.73
  Q 414.78 95.07 415.36 95.41
  L 420.62 98.49
  L 435.03 106.95
  Q 435.73 107.36 435.02 107.77
  L 407.02 123.86
  Q 406.47 124.18 405.92 123.86
  L 390.93 115.27
  L 385.74 112.32
  Q 385.25 112.04 384.76 112.32
  L 354.54 129.70
  L 353.10 122.93
  L 377.88 108.47
  Q 378.48 108.12 377.88 107.77
  L 372.84 104.86
  L 357.95 96.16
  Q 357.40 95.84 357.95 95.52
  L 385.88 79.37
  A 1.36 1.34 44.6 0 1 387.23 79.37
  L 402.56 88.10
  L 407.34 90.86
  Q 407.81 91.13 408.29 90.86
  L 473.41 53.26
  Z
  M 411.88 104.13
  A 0.30 0.30 0.0 0 0 411.88 103.61
  L 392.66 92.61
  A 0.30 0.30 0.0 0 0 392.36 92.61
  L 381.47 98.99
  A 0.30 0.30 0.0 0 0 381.48 99.51
  L 400.41 110.47
  A 0.30 0.30 0.0 0 0 400.71 110.48
  L 411.88 104.13
  Z"
/>
<path fill="#b3b4f1" d="
  M 480.26 57.17
  L 486.26 60.53
  L 420.62 98.49
  L 415.36 95.41
  Q 414.78 95.07 415.37 94.73
  L 480.26 57.17
  Z"
/>
<path fill="#d9dffe" d="
  M 486.26 60.53
  L 520.41 80.51
  L 493.56 96.15
  L 192.93 269.56
  L 166.65 284.76
  L 132.89 265.18
  A 0.44 0.43 45.2 0 1 132.89 264.43
  L 197.96 226.90
  L 213.04 235.41
  Q 213.47 235.66 213.90 235.40
  L 242.09 219.12
  A 0.40 0.39 44.6 0 0 242.08 218.44
  L 227.48 210.02
  Q 227.48 209.84 227.49 209.70
  Q 227.53 209.27 227.96 209.25
  Q 228.12 209.25 228.27 209.26
  Q 228.44 209.27 228.58 209.19
  L 268.22 186.27
  L 281.53 178.51
  L 342.22 143.79
  L 355.03 136.18
  L 390.93 115.27
  L 405.92 123.86
  Q 406.47 124.18 407.02 123.86
  L 435.02 107.77
  Q 435.73 107.36 435.03 106.95
  L 420.62 98.49
  L 486.26 60.53
  Z"
/>
<path fill="#2d373a" d="
  M 520.41 80.51
  L 520.50 111.23
  C 508.39 116.77 497.83 115.49 494.76 101.02
  Q 494.27 98.69 493.56 96.15
  L 520.41 80.51
  Z"
/>
<path fill="#3e4a52" d="
  M 411.88 104.13
  L 400.71 110.48
  A 0.30 0.30 0.0 0 1 400.41 110.47
  L 381.48 99.51
  A 0.30 0.30 0.0 0 1 381.47 98.99
  L 392.36 92.61
  A 0.30 0.30 0.0 0 1 392.66 92.61
  L 411.88 103.61
  A 0.30 0.30 0.0 0 1 411.88 104.13
  Z"
/>
<path fill="#65717f" d="
  M 319.52 95.76
  L 335.99 105.37
  Q 323.21 105.43 314.32 110.09
  C 290.70 122.47 274.37 149.15 269.24 174.73
  C 268.60 177.91 268.46 182.14 267.73 185.83
  Q 265.22 185.02 263.56 183.58
  A 1.59 1.58 -39.2 0 0 261.72 183.40
  L 222.01 206.24
  Q 221.49 206.54 222.01 206.84
  L 227.48 210.02
  L 242.08 218.44
  A 0.40 0.39 44.6 0 1 242.09 219.12
  L 213.90 235.40
  Q 213.47 235.66 213.04 235.41
  L 197.96 226.90
  L 192.74 223.66
  Q 192.29 223.38 191.84 223.65
  Q 154.12 245.66 128.17 260.40
  Q 127.45 260.80 126.76 261.71
  Q 126.72 262.51 126.50 262.12
  L 119.96 257.87
  L 120.07 257.37
  L 184.86 219.94
  Q 185.39 219.64 184.86 219.33
  L 179.60 216.27
  L 164.96 207.73
  A 0.45 0.44 45.2 0 1 164.96 206.96
  L 193.03 190.75
  Q 193.53 190.46 194.03 190.75
  L 209.05 199.29
  L 214.16 202.39
  Q 214.64 202.68 215.12 202.40
  L 255.00 179.48
  A 0.44 0.43 -47.5 0 0 254.97 178.71
  L 249.28 176.05
  Q 249.88 153.65 261.01 134.73
  Q 261.80 133.39 263.99 128.76
  Q 268.60 122.49 274.56 115.57
  Q 284.53 104.00 297.90 97.92
  Q 308.80 92.97 319.52 95.76
  Z
  M 218.58 215.71
  A 0.46 0.46 0.0 0 0 218.57 214.91
  L 199.73 204.13
  A 0.46 0.46 0.0 0 0 199.27 204.13
  L 188.48 210.33
  A 0.46 0.46 0.0 0 0 188.48 211.13
  L 207.32 221.93
  A 0.46 0.46 0.0 0 0 207.78 221.93
  L 218.58 215.71
  Z"
/>
<path fill="#8b8fc1" d="
  M 493.56 96.15
  Q 494.27 98.69 494.76 101.02
  C 497.83 115.49 508.39 116.77 520.50 111.23
  L 520.47 335.26
  Q 496.83 351.53 494.02 380.08
  A 0.66 0.64 -64.0 0 0 494.17 380.55
  Q 494.28 380.66 494.35 380.85
  L 193.65 554.47
  Q 192.90 551.63 192.34 549.00
  C 189.29 534.83 178.81 533.84 167.04 539.12
  L 166.77 315.29
  C 181.98 305.20 192.26 287.96 192.93 269.56
  L 493.56 96.15
  Z
  M 501.24 352.20
  L 501.31 115.75
  A 0.33 0.33 0.0 0 0 500.82 115.46
  Q 344.76 205.53 188.75 295.59
  C 186.77 296.74 185.81 297.81 185.82 300.06
  Q 186.24 413.23 185.83 526.39
  C 185.83 528.69 186.15 531.85 185.95 534.59
  A 0.41 0.41 0.0 0 0 186.57 534.97
  Q 341.87 445.22 497.31 355.56
  Q 499.52 354.29 500.84 353.09
  Q 501.24 352.73 501.24 352.20
  Z"
/>
<path fill="#b3b4f1" d="
  M 372.84 104.86
  L 377.88 107.77
  Q 378.48 108.12 377.88 108.47
  L 353.10 122.93
  L 350.85 117.75
  Q 361.41 110.72 372.84 104.86
  Z"
/>
<path fill="#3e4a52" d="
  M 335.99 105.37
  Q 340.96 107.64 343.69 109.56
  Q 347.93 112.56 350.85 117.75
  L 353.10 122.93
  L 354.54 129.70
  L 355.03 136.18
  L 342.22 143.79
  L 341.15 143.58
  Q 341.81 142.68 341.79 142.01
  C 341.44 130.73 334.03 120.38 321.46 122.97
  C 306.43 126.11 294.31 140.22 287.91 153.64
  L 284.23 162.52
  Q 282.42 166.35 282.39 171.34
  Q 280.84 173.68 281.53 178.51
  L 268.22 186.27
  Q 267.91 186.10 267.73 185.83
  C 268.46 182.14 268.60 177.91 269.24 174.73
  C 274.37 149.15 290.70 122.47 314.32 110.09
  Q 323.21 105.43 335.99 105.37
  Z"
/>
<path fill="#b3b4f1" d="
  M 390.93 115.27
  L 355.03 136.18
  L 354.54 129.70
  L 384.76 112.32
  Q 385.25 112.04 385.74 112.32
  L 390.93 115.27
  Z"
/>
<path fill="#b3b4f1" d="
  M 501.31 115.75
  L 501.24 352.20
  Q 501.24 352.73 500.84 353.09
  Q 499.52 354.29 497.31 355.56
  Q 341.87 445.22 186.57 534.97
  A 0.41 0.41 0.0 0 1 185.95 534.59
  C 186.15 531.85 185.83 528.69 185.83 526.39
  Q 186.24 413.23 185.82 300.06
  C 185.81 297.81 186.77 296.74 188.75 295.59
  Q 344.76 205.53 500.82 115.46
  A 0.33 0.33 0.0 0 1 501.31 115.75
  Z
  M 194.61 304.94
  A 0.73 0.73 0.0 0 0 194.24 305.57
  L 194.27 516.50
  A 0.73 0.73 0.0 0 0 195.36 517.13
  L 492.38 345.66
  A 0.73 0.73 0.0 0 0 492.75 345.03
  L 492.75 134.06
  A 0.73 0.73 0.0 0 0 491.65 133.43
  L 194.61 304.94
  Z"
/>
<path fill="#65717f" d="
  M 341.15 143.58
  L 336.38 140.78
  A 0.93 0.92 -44.5 0 0 335.45 140.78
  L 282.39 171.34
  Q 282.42 166.35 284.23 162.52
  L 328.43 136.96
  A 0.49 0.49 0.0 0 0 328.43 136.10
  L 323.17 133.10
  L 321.46 122.97
  C 334.03 120.38 341.44 130.73 341.79 142.01
  Q 341.81 142.68 341.15 143.58
  Z"
/>
<path fill="#d9dffe" d="
  M 321.46 122.97
  L 323.17 133.10
  L 287.91 153.64
  C 294.31 140.22 306.43 126.11 321.46 122.97
  Z"
/>
<path fill="#d9dffe" d="
  M 263.99 128.76
  Q 261.80 133.39 261.01 134.73
  Q 249.88 153.65 249.28 176.05
  L 209.05 199.29
  L 194.03 190.75
  Q 193.53 190.46 193.03 190.75
  L 164.96 206.96
  A 0.45 0.44 45.2 0 0 164.96 207.73
  L 179.60 216.27
  L 114.32 253.97
  A 0.91 0.91 0.0 0 1 113.40 253.97
  Q 97.70 244.76 81.80 235.72
  Q 81.27 235.42 80.40 234.18
  Q 89.73 228.32 104.21 219.97
  Q 174.11 179.62 244.02 139.28
  Q 256.42 132.13 263.99 128.76
  Z"
/>
<path fill="#b3b4f1" d="
  M 323.17 133.10
  L 328.43 136.10
  A 0.49 0.49 0.0 0 1 328.43 136.96
  L 284.23 162.52
  L 287.91 153.64
  L 323.17 133.10
  Z"
/>
<path fill="#8b8fc1" d="
  M 194.61 304.94
  L 491.65 133.43
  A 0.73 0.73 0.0 0 1 492.75 134.06
  L 492.75 345.03
  A 0.73 0.73 0.0 0 1 492.38 345.66
  L 195.36 517.13
  A 0.73 0.73 0.0 0 1 194.27 516.50
  L 194.24 305.57
  A 0.73 0.73 0.0 0 1 194.61 304.94
  Z"
/>
<path fill="#b3b4f1" d="
  M 341.15 143.58
  L 342.22 143.79
  L 281.53 178.51
  Q 280.84 173.68 282.39 171.34
  L 335.45 140.78
  A 0.93 0.92 -44.5 0 1 336.38 140.78
  L 341.15 143.58
  Z"
/>
<path fill="#b3b4f1" d="
  M 249.28 176.05
  L 254.97 178.71
  A 0.44 0.43 -47.5 0 1 255.00 179.48
  L 215.12 202.40
  Q 214.64 202.68 214.16 202.39
  L 209.05 199.29
  L 249.28 176.05
  Z"
/>
<path fill="#b3b4f1" d="
  M 267.73 185.83
  Q 267.91 186.10 268.22 186.27
  L 228.58 209.19
  Q 228.44 209.27 228.27 209.26
  Q 228.12 209.25 227.96 209.25
  Q 227.53 209.27 227.49 209.70
  Q 227.48 209.84 227.48 210.02
  L 222.01 206.84
  Q 221.49 206.54 222.01 206.24
  L 261.72 183.40
  A 1.59 1.58 -39.2 0 1 263.56 183.58
  Q 265.22 185.02 267.73 185.83
  Z"
/>
<path fill="#3e4a52" d="
  M 218.58 215.71
  L 207.78 221.93
  A 0.46 0.46 0.0 0 1 207.32 221.93
  L 188.48 211.13
  A 0.46 0.46 0.0 0 1 188.48 210.33
  L 199.27 204.13
  A 0.46 0.46 0.0 0 1 199.73 204.13
  L 218.57 214.91
  A 0.46 0.46 0.0 0 1 218.58 215.71
  Z"
/>
<path fill="#b3b4f1" d="
  M 179.60 216.27
  L 184.86 219.33
  Q 185.39 219.64 184.86 219.94
  L 120.07 257.37
  Q 116.77 256.69 114.50 254.63
  Q 114.18 254.34 114.12 254.77
  C 113.48 259.42 113.99 265.01 113.99 268.41
  Q 114.01 401.55 113.99 534.69
  Q 113.99 536.47 113.31 539.11
  L 79.91 519.95
  Q 79.50 519.72 79.50 519.25
  L 79.50 235.20
  Q 79.50 234.72 79.91 234.47
  L 80.40 234.18
  Q 81.27 235.42 81.80 235.72
  Q 97.70 244.76 113.40 253.97
  A 0.91 0.91 0.0 0 0 114.32 253.97
  L 179.60 216.27
  Z"
/>
<path fill="#b3b4f1" d="
  M 197.96 226.90
  L 132.89 264.43
  A 0.44 0.43 45.2 0 0 132.89 265.18
  L 166.65 284.76
  L 166.77 315.29
  L 167.04 539.12
  L 166.63 569.50
  Q 165.05 569.02 164.69 568.81
  Q 148.17 559.30 132.24 550.20
  L 132.25 265.49
  A 0.93 0.92 15.6 0 0 131.80 264.70
  L 126.76 261.71
  Q 127.45 260.80 128.17 260.40
  Q 154.12 245.66 191.84 223.65
  Q 192.29 223.38 192.74 223.66
  L 197.96 226.90
  Z"
/>
<path fill="#8b8fc1" d="
  M 120.07 257.37
  L 119.96 257.87
  L 119.75 542.79
  L 113.31 539.11
  Q 113.99 536.47 113.99 534.69
  Q 114.01 401.55 113.99 268.41
  C 113.99 265.01 113.48 259.42 114.12 254.77
  Q 114.18 254.34 114.50 254.63
  Q 116.77 256.69 120.07 257.37
  Z"
/>
<path fill="#3e4a52" d="
  M 119.96 257.87
  L 126.50 262.12
  L 126.48 546.66
  L 119.75 542.79
  L 119.96 257.87
  Z"
/>
<path fill="#8b8fc1" d="
  M 126.76 261.71
  L 131.80 264.70
  A 0.93 0.92 15.6 0 1 132.25 265.49
  L 132.24 550.20
  L 126.48 546.66
  L 126.50 262.12
  Q 126.72 262.51 126.76 261.71
  Z"
/>
<path fill="#2d373a" d="
  M 192.93 269.56
  C 192.26 287.96 181.98 305.20 166.77 315.29
  L 166.65 284.76
  L 192.93 269.56
  Z"
/>
<path fill="#2d373a" d="
  M 520.47 335.26
  L 520.49 365.20
  Q 520.49 365.73 520.03 365.99
  L 494.35 380.85
  Q 494.28 380.66 494.17 380.55
  A 0.66 0.64 -64.0 0 1 494.02 380.08
  Q 496.83 351.53 520.47 335.26
  Z"
/>
<path fill="#2d373a" d="
  M 193.65 554.47
  L 167.01 569.84
  Q 166.82 569.95 166.66 569.79
  Q 166.29 569.42 166.63 569.50
  L 167.04 539.12
  C 178.81 533.84 189.29 534.83 192.34 549.00
  Q 192.90 551.63 193.65 554.47
  Z"
/>
</svg>
